<svg xmlns="http://www.w3.org/2000/svg" viewBox="0 0 512 512">
  <defs>
    <linearGradient id="relayStroke" x1="170" y1="80" x2="355" y2="385" gradientUnits="userSpaceOnUse">
      <stop stop-color="#FFFDF4"/>
      <stop offset=".28" stop-color="#FFD166"/>
      <stop offset=".58" stop-color="#FF5E3A"/>
      <stop offset=".82" stop-color="#00F5D0"/>
      <stop offset="1" stop-color="#3B82F6"/>
    </linearGradient>
    <linearGradient id="relayAccent" x1="135" y1="120" x2="410" y2="370" gradientUnits="userSpaceOnUse">
      <stop stop-color="#FF2E55"/>
      <stop offset=".36" stop-color="#FF9F1C"/>
      <stop offset=".72" stop-color="#00F5D0"/>
      <stop offset="1" stop-color="#8B5CF6"/>
    </linearGradient>
    <filter id="markGlow" x="-40%" y="-40%" width="180%" height="180%">
      <feDropShadow dx="0" dy="10" stdDeviation="14" flood-color="#FF5E3A" flood-opacity=".23"/>
    </filter>
    <filter id="microGlow" x="-60%" y="-60%" width="220%" height="220%">
      <feDropShadow dx="0" dy="0" stdDeviation="8" flood-color="#00F5D0" flood-opacity=".52"/>
    </filter>
  </defs>
  <g transform="translate(256 238)" filter="url(#markGlow)">
    <g opacity=".98">
      <rect x="-19" y="-166" width="38" height="130" rx="19" fill="#FFFDF4" transform="rotate(-84)"/>
      <rect x="-19" y="-166" width="38" height="132" rx="19" fill="#FFE06B" transform="rotate(-48)"/>
      <rect x="-20" y="-172" width="40" height="142" rx="20" fill="#FF7A1A" transform="rotate(-15)"/>
      <rect x="-20" y="-170" width="40" height="136" rx="20" fill="url(#relayStroke)" transform="rotate(24)"/>
      <rect x="-19" y="-163" width="38" height="126" rx="19" fill="url(#relayAccent)" transform="rotate(58)"/>
      <rect x="-17" y="-151" width="34" height="112" rx="17" fill="#00F5D0" transform="rotate(96)"/>
      <rect x="-16" y="-142" width="32" height="104" rx="16" fill="#7DD3FC" transform="rotate(136)" opacity=".92"/>
      <rect x="-16" y="-137" width="32" height="98" rx="16" fill="#CFFAF0" transform="rotate(178)" opacity=".86"/>
    </g>
    <path d="M-56 64L64 -58" stroke="#05080D" stroke-width="34" stroke-linecap="round"/>
    <path d="M-45 54L55 -47" stroke="#0B1520" stroke-width="18" stroke-linecap="round"/>
    <circle cx="0" cy="0" r="37" fill="#05080D"/>
    <circle cx="0" cy="0" r="18" fill="none" stroke="#FFFFFF" stroke-opacity=".16" stroke-width="2"/>
    <path d="M-20 18C-4 0 7 -10 24 -28" stroke="url(#relayAccent)" stroke-width="7" stroke-linecap="round" filter="url(#microGlow)"/>
  </g>
  <circle cx="342" cy="150" r="7" fill="#FFD166" filter="url(#microGlow)"/>
  <circle cx="162" cy="340" r="5" fill="#00F5D0" opacity=".82"/>
</svg>
